<svg class="svg" data-name="Layer 1" id="Layer_1" viewBox="0 0 150 150" xmlns="http://www.w3.org/2000/svg"><defs><style>.cls-1{fill:red;stroke:#000;transition:.3s}.cls-2{fill:#00f}.cls-3{fill:#fff}.cls-4{fill:pink}</style></defs><circle class="cls-1" cx="75" cy="75" r="65"/><path class="cls-2" d="M94.83 36.2a23.79 23.79 0 0 0-10.12-2.25 24 24 0 0 0-12.22 44.68l-3.08 6.61a4.11 4.11 0 0 0-3.83 2.37l-11.24 24.16a4.11 4.11 0 0 0 2 5.47l1.24.58a4.11 4.11 0 0 0 5.47-2l11.24-24.15a4.11 4.11 0 0 0-.64-4.45l3.08-6.62a23.71 23.71 0 0 0 7.95 1.4 24 24 0 0 0 10.15-45.8z"/><path class="cls-3" d="M84.71 38.62a19.34 19.34 0 0 0-8.18 36.87 19.18 19.18 0 0 0 8.15 1.81 19.34 19.34 0 0 0 8.18-36.87 19.17 19.17 0 0 0-8.15-1.81z"/><path class="cls-4" d="M95.38 69a2.34 2.34 0 0 1-2-3.54c5.26-8.72.38-15.1.17-15.37a2.34 2.34 0 0 1 3.64-2.93c.3.37 7.18 9.11.18 20.71A2.33 2.33 0 0 1 95.38 69z"/></svg>